<svg width="1000" height="1400" viewBox="0 0 1000 1400" fill="none" xmlns="http://www.w3.org/2000/svg">
  <rect width="1000" height="1400" rx="60" fill="#F6F1E8"/>
  <rect x="130" y="110" width="740" height="1180" rx="56" fill="#17313B"/>
  <rect x="174" y="162" width="652" height="1080" rx="42" fill="#FBF8F2"/>
  <rect x="228" y="226" width="210" height="22" rx="11" fill="#8AA4A0"/>
  <rect x="228" y="270" width="330" height="52" rx="26" fill="#2E6A69"/>
  <rect x="228" y="364" width="544" height="266" rx="32" fill="#EEF4F2"/>
  <rect x="270" y="408" width="180" height="20" rx="10" fill="#17313B"/>
  <rect x="270" y="450" width="304" height="16" rx="8" fill="#7A928F"/>
  <rect x="270" y="512" width="230" height="74" rx="28" fill="#8DC9C1"/>
  <rect x="228" y="678" width="258" height="230" rx="32" fill="#F4EFE6"/>
  <rect x="514" y="678" width="258" height="230" rx="32" fill="#D8EDE8"/>
  <rect x="228" y="948" width="544" height="210" rx="32" fill="#17313B"/>
  <rect x="272" y="998" width="168" height="18" rx="9" fill="#FBF8F2"/>
  <rect x="272" y="1040" width="368" height="16" rx="8" fill="#BFD7D2"/>
  <rect x="272" y="1086" width="208" height="48" rx="24" fill="#8DC9C1"/>
</svg>

