<svg width="1200" height="900" viewBox="0 0 1200 900" fill="none" xmlns="http://www.w3.org/2000/svg">
  <rect width="1200" height="900" rx="56" fill="#F8F3EA"/>
  <rect x="72" y="72" width="1056" height="756" rx="44" fill="url(#bg)"/>
  <circle cx="964" cy="222" r="122" fill="#D8EDE8"/>
  <circle cx="924" cy="232" r="74" fill="#8DC9C1"/>
  <rect x="126" y="162" width="418" height="480" rx="36" fill="#17313B"/>
  <rect x="156" y="202" width="358" height="52" rx="16" fill="#2E6A69"/>
  <rect x="156" y="282" width="230" height="24" rx="12" fill="#FBF8F2"/>
  <rect x="156" y="324" width="300" height="18" rx="9" fill="#BFD7D2"/>
  <rect x="156" y="372" width="146" height="146" rx="32" fill="#F4EFE6"/>
  <rect x="320" y="372" width="164" height="70" rx="24" fill="#8DC9C1"/>
  <rect x="320" y="460" width="164" height="58" rx="24" fill="#22454E"/>
  <rect x="602" y="192" width="462" height="204" rx="34" fill="#FBF8F2"/>
  <rect x="638" y="234" width="204" height="24" rx="12" fill="#17313B"/>
  <rect x="638" y="276" width="340" height="18" rx="9" fill="#8AA4A0"/>
  <rect x="638" y="326" width="388" height="30" rx="15" fill="#DCCDBB"/>
  <rect x="602" y="432" width="220" height="220" rx="34" fill="#D8EDE8"/>
  <rect x="844" y="432" width="220" height="220" rx="34" fill="#17313B"/>
  <path d="M684 582C718 530 764 500 856 506C820 552 770 586 684 582Z" fill="#2E6A69"/>
  <rect x="888" y="474" width="132" height="24" rx="12" fill="#FBF8F2"/>
  <rect x="888" y="518" width="96" height="18" rx="9" fill="#BFD7D2"/>
  <rect x="888" y="612" width="116" height="18" rx="9" fill="#8DC9C1"/>
  <defs>
    <linearGradient id="bg" x1="600" y1="72" x2="600" y2="828" gradientUnits="userSpaceOnUse">
      <stop stop-color="#EEF6F4"/>
      <stop offset="1" stop-color="#F8F3EA"/>
    </linearGradient>
  </defs>
</svg>

