<svg width="800" height="900" viewBox="0 0 800 900" fill="none" xmlns="http://www.w3.org/2000/svg">
  <rect width="800" height="900" rx="48" fill="#EEF4F2"/>
  <circle cx="400" cy="290" r="128" fill="#DCCDBB"/>
  <path d="M250 744C258 590 312 500 400 500C488 500 542 590 550 744H250Z" fill="#17313B"/>
  <path d="M292 318C292 236 340 184 400 184C460 184 508 236 508 318V366C508 448 460 500 400 500C340 500 292 448 292 366V318Z" fill="#F5D8BF"/>
  <path d="M282 274C282 198 332 152 400 152C468 152 518 198 518 274V330C508 300 476 282 444 282C374 282 334 320 292 370L282 274Z" fill="#2E6A69"/>
  <rect x="208" y="724" width="384" height="72" rx="36" fill="#8DC9C1"/>
  <text x="400" y="780" text-anchor="middle" fill="#17313B" font-size="34" font-family="Georgia, serif">Ayla</text>
</svg>

